<?xml version="1.0" encoding="UTF-8"?>
<svg xmlns="http://www.w3.org/2000/svg" width="21in" height="9in" viewBox="0 0 2100 900" role="img" aria-labelledby="title desc">
  <title id="title">PartSeg Method Overview</title>
  <desc id="desc">Clean two-panel method overview figure for promptable part segmentation.</desc>
  <defs>
    <marker id="arrow" markerWidth="12" markerHeight="10" refX="11" refY="5" orient="auto" markerUnits="strokeWidth">
      <path d="M0,0 L12,5 L0,10 Z" fill="#5b6472"/>
    </marker>
    <marker id="arrow-soft" markerWidth="12" markerHeight="10" refX="11" refY="5" orient="auto" markerUnits="strokeWidth">
      <path d="M0,0 L12,5 L0,10 Z" fill="#9aa4b2"/>
    </marker>
    <marker id="arrow-red" markerWidth="12" markerHeight="10" refX="11" refY="5" orient="auto" markerUnits="strokeWidth">
      <path d="M0,0 L12,5 L0,10 Z" fill="#d75a4a"/>
    </marker>
    <filter id="shadow" x="-5%" y="-8%" width="110%" height="116%">
      <feDropShadow dx="0" dy="2" stdDeviation="3" flood-color="#1f2937" flood-opacity="0.10"/>
    </filter>
    <linearGradient id="voxelTop" x1="0" y1="0" x2="1" y2="1">
      <stop offset="0" stop-color="#fff4c7"/>
      <stop offset="1" stop-color="#f4d889"/>
    </linearGradient>
    <symbol id="icon-snow" viewBox="0 0 28 28">
      <circle cx="14" cy="14" r="3" fill="#9bd0f5"/>
      <path d="M14 2 V26 M4 7 L24 21 M24 7 L4 21" stroke="#83c3f0" stroke-width="2.4" stroke-linecap="round"/>
      <path d="M9 4 L14 9 L19 4 M9 24 L14 19 L19 24 M2 14 H26" stroke="#b7def7" stroke-width="1.8" stroke-linecap="round"/>
    </symbol>
    <symbol id="icon-fire" viewBox="0 0 28 28">
      <path d="M15 2 C19 8 23 11 23 17 C23 23 19 27 14 27 C8 27 4 23 4 18 C4 14 7 11 10 8 C10 12 12 14 14 15 C15 11 13 8 15 2 Z" fill="#ff8a24"/>
      <path d="M14 13 C17 17 18 20 15 23 C13 25 9 23 9 19 C9 17 11 15 14 13 Z" fill="#ffd27a"/>
    </symbol>
    <style>
      .bg { fill: #ffffff; }
      .panel { fill: #fbfcfe; stroke: #d7dee9; stroke-width: 2; rx: 24; }
      .panel-title { font: 800 30px "Inter", "Noto Sans", Arial, sans-serif; fill: #172033; letter-spacing: 0; }
      .card { stroke: #bcc8d7; stroke-width: 2; rx: 16; filter: url(#shadow); }
      .blue { fill: #eaf4ff; }
      .lav { fill: #f1edff; }
      .green { fill: #eaf8f0; }
      .yellow { fill: #fff6d9; }
      .pink { fill: #fff0f3; }
      .gray { fill: #f2f5f8; }
      .orange { fill: #ffe7c7; stroke: #e0a35c; }
      .new-card { fill: #fff5f3; stroke: #e46655; stroke-width: 2.5; }
      .train-box { fill: #fbfbfc; stroke: #a8b1bf; stroke-width: 2; stroke-dasharray: 9 7; rx: 18; }
      .title { font: 800 23px "Inter", "Noto Sans", Arial, sans-serif; fill: #202a3a; letter-spacing: 0; }
      .med { font: 800 19px "Inter", "Noto Sans", Arial, sans-serif; fill: #202a3a; letter-spacing: 0; }
      .subtitle { font: 600 17px "Inter", "Noto Sans", Arial, sans-serif; fill: #697486; letter-spacing: 0; }
      .small { font: 600 15px "Inter", "Noto Sans", Arial, sans-serif; fill: #697486; letter-spacing: 0; }
      .tiny { font: 600 13px "Inter", "Noto Sans", Arial, sans-serif; fill: #7c8796; letter-spacing: 0; }
      .arrow { fill: none; stroke: #5b6472; stroke-width: 2.4; marker-end: url(#arrow); }
      .arrow-soft { fill: none; stroke: #9aa4b2; stroke-width: 2; marker-end: url(#arrow-soft); }
      .arrow-faded { fill: none; stroke: #a8b1bf; stroke-width: 2; marker-end: url(#arrow-soft); opacity: 0.55; }
      .arrow-red { fill: none; stroke: #d75a4a; stroke-width: 2; stroke-dasharray: 7 6; marker-end: url(#arrow-red); }
      .badge { fill: #dc2f2f; rx: 7; }
      .badge-text { font: 800 13px "Inter", Arial, sans-serif; fill: #fff; letter-spacing: 0; }
      .legend { font: 600 15px "Inter", "Noto Sans", Arial, sans-serif; fill: #6b7687; }
    </style>
  </defs>

  <rect class="bg" x="0" y="0" width="2100" height="900"/>

  <rect class="panel" x="42" y="58" width="790" height="770"/>
  <rect class="panel" x="870" y="58" width="1188" height="770"/>
  <text x="76" y="116" class="panel-title">(a) Pipeline Overview</text>
  <text x="904" y="116" class="panel-title">(b) Promptable Part Segmentation</text>

  <!-- Panel A: multi-view renders -->
  <rect class="card blue" x="78" y="190" width="205" height="205"/>
  <text x="112" y="232" class="title">Multi-view</text>
  <text x="112" y="260" class="title">Images</text>
  <g transform="translate(106 286)">
    <g>
      <rect x="0" y="0" width="64" height="52" rx="7" fill="#d9ecff" stroke="#8fb9df" stroke-width="2"/>
      <rect x="15" y="16" width="34" height="25" rx="3" fill="#b8c7d6"/>
      <rect x="20" y="20" width="24" height="17" rx="2" fill="#8aa2b9"/>
      <circle cx="23" cy="29" r="3" fill="#e7eef5"/>
    </g>
    <g transform="translate(78 0)">
      <rect x="0" y="0" width="64" height="52" rx="7" fill="#dff3e8" stroke="#95c9aa" stroke-width="2"/>
      <rect x="17" y="13" width="30" height="28" rx="3" fill="#99bfa6"/>
      <path d="M22 18 H42 V36 H22 Z M32 18 V36" stroke="#eef6f0" stroke-width="2" fill="none"/>
    </g>
    <g transform="translate(0 65)">
      <rect x="0" y="0" width="64" height="52" rx="7" fill="#ffedcf" stroke="#d9ac70" stroke-width="2"/>
      <rect x="13" y="14" width="38" height="28" rx="4" fill="#c99a62"/>
      <line x1="32" y1="14" x2="32" y2="42" stroke="#f7e5cc" stroke-width="2"/>
    </g>
    <g transform="translate(78 65)">
      <rect x="0" y="0" width="64" height="52" rx="7" fill="#f4def0" stroke="#c7a2c8" stroke-width="2"/>
      <rect x="14" y="12" width="36" height="30" rx="4" fill="#a68bb6"/>
      <circle cx="26" cy="28" r="3" fill="#f8ecf8"/>
      <circle cx="38" cy="28" r="3" fill="#f8ecf8"/>
    </g>
  </g>

  <path class="arrow" d="M294 292 H344"/>
  <rect class="card lav" x="355" y="172" width="235" height="245"/>
  <text x="443" y="224" text-anchor="middle" class="title">VLM</text>
  <text x="443" y="254" text-anchor="middle" class="subtitle">semantic parser</text>
  <text x="443" y="314" text-anchor="middle" class="small">multi-view renders</text>
  <text x="443" y="351" text-anchor="middle" class="tiny">single semantic source</text>
  <text x="443" y="372" text-anchor="middle" class="tiny">for SS and seg prompts</text>

  <path class="arrow" d="M590 218 C617 218 618 202 648 202"/>
  <text x="604" y="191" class="tiny">(1)</text>
  <rect class="card gray" x="650" y="162" width="145" height="80"/>
  <text x="713" y="207" text-anchor="middle" class="title">DINOv2</text>
  <use href="#icon-snow" x="765" y="187" width="22" height="22"/>
  <path class="arrow" d="M722 244 V279"/>
  <rect class="card green" x="638" y="284" width="168" height="88"/>
  <text x="713" y="327" text-anchor="middle" class="title">SS Flow</text>
  <use href="#icon-fire" x="773" y="304" width="24" height="24"/>
  <text x="722" y="351" text-anchor="middle" class="tiny">multi-view concat</text>
  <path class="arrow" d="M722 374 V411"/>
  <rect class="card yellow" x="635" y="416" width="174" height="110"/>
  <text x="722" y="455" text-anchor="middle" class="title">64³ Voxel</text>
  <g transform="translate(690 470)">
    <polygon points="32,0 64,16 32,32 0,16" fill="url(#voxelTop)" stroke="#d7b85a" stroke-width="1.5"/>
    <polygon points="0,16 32,32 32,68 0,52" fill="#f0c96d" stroke="#d7b85a" stroke-width="1.5"/>
    <polygon points="64,16 32,32 32,68 64,52" fill="#e6b85e" stroke="#d7b85a" stroke-width="1.5"/>
    <path d="M16 24 L48 8 M16 60 L16 24 M48 60 L48 24" stroke="#fff2bd" stroke-width="1.2" opacity="0.8"/>
  </g>

  <path class="arrow-soft" d="M590 300 C630 320 616 574 570 574"/>
  <text x="610" y="458" class="tiny">(2) names</text>
  <path class="arrow-soft" d="M590 335 C640 368 637 603 570 603"/>
  <text x="610" y="510" class="tiny">(3) masks</text>
  <rect class="card pink" x="365" y="548" width="325" height="106"/>
  <text x="528" y="590" text-anchor="middle" class="title">Part Prompts</text>
  <text x="528" y="618" text-anchor="middle" class="subtitle">names + 2D masks</text>
  <g transform="translate(628 572)">
    <rect x="0" y="0" width="38" height="38" rx="6" fill="#fff" stroke="#d9a6b2"/>
    <path d="M7 25 C13 9 24 8 31 25 Z" fill="#e98596" opacity="0.85"/>
  </g>
  <path class="arrow" d="M690 601 C752 601 808 601 882 601"/>

  <path class="arrow-faded" d="M395 715 H575"/>
  <text x="585" y="720" class="small" opacity="0.68">per-part decode → sim-ready assets</text>

  <!-- Panel B: inputs -->
  <rect class="card yellow" x="920" y="162" width="180" height="78"/>
  <text x="1010" y="211" text-anchor="middle" class="title">64³ Voxel</text>
  <path class="arrow" d="M1010 242 V274"/>
  <rect class="card gray" x="920" y="280" width="180" height="78"/>
  <text x="1000" y="329" text-anchor="middle" class="title">SS Encoder</text>
  <use href="#icon-snow" x="1072" y="309" width="22" height="22"/>
  <path class="arrow" d="M1010 360 V393"/>
  <rect class="card blue" x="920" y="398" width="180" height="105"/>
  <text x="1010" y="434" text-anchor="middle" class="title">Latent Grid</text>
  <g transform="translate(965 452)">
    <rect x="0" y="0" width="76" height="35" rx="4" fill="#d8eafe" stroke="#8fb9df"/>
    <path d="M12 0 V35 M25 0 V35 M38 0 V35 M51 0 V35 M64 0 V35 M0 12 H76 M0 24 H76" stroke="#aac8e8" stroke-width="1"/>
    <path d="M76 0 L94 12 V47 L76 35 Z" fill="#c2dcf8" stroke="#8fb9df"/>
    <path d="M18 12 L94 12 M18 24 L94 24 M18 35 L94 47" stroke="#aac8e8" stroke-width="1"/>
  </g>

  <rect class="card pink" x="920" y="560" width="180" height="78"/>
  <text x="1010" y="590" text-anchor="middle" class="title">2D Mask</text>
  <text x="1010" y="616" text-anchor="middle" class="subtitle">Prompt</text>
  <path class="arrow" d="M1102 599 H1136"/>
  <rect class="card pink" x="1142" y="560" width="190" height="78"/>
  <text x="1237" y="590" text-anchor="middle" class="title">Prompt</text>
  <text x="1237" y="616" text-anchor="middle" class="title">Encoder</text>
  <path class="arrow" d="M1334 599 C1370 599 1374 500 1395 500"/>

  <rect class="card new-card" x="920" y="684" width="180" height="80"/>
  <rect class="badge" x="936" y="698" width="54" height="24"/>
  <text class="badge-text" x="963" y="715" text-anchor="middle">NEW</text>
  <text x="1010" y="742" text-anchor="middle" class="title">Negative</text>
  <text x="1010" y="763" text-anchor="middle" class="subtitle">Prompt</text>
  <path class="arrow-soft" d="M1102 724 C1176 724 1184 643 1218 643"/>

  <!-- Panel B: hero trunk -->
  <path class="arrow" d="M1102 451 C1234 451 1282 421 1390 421"/>
  <rect class="card orange" x="1390" y="274" width="270" height="275"/>
  <text x="1511" y="383" text-anchor="middle" class="title" font-size="27">Seg Trunk</text>
  <use href="#icon-fire" x="1602" y="360" width="26" height="26"/>
  <text x="1525" y="418" text-anchor="middle" class="subtitle">one forward per part (×K)</text>
  <text x="1525" y="465" text-anchor="middle" class="small">latent features + prompt tokens</text>

  <!-- Outputs -->
  <path class="arrow" d="M1662 412 H1705"/>
  <rect class="card orange" x="1712" y="374" width="150" height="76"/>
  <text x="1787" y="421" text-anchor="middle" class="title">Part Latent</text>
  <path class="arrow" d="M1864 412 H1902"/>
  <rect class="card gray" x="1908" y="374" width="130" height="76"/>
  <text x="1973" y="407" text-anchor="middle" class="title">SS</text>
  <text x="1962" y="433" text-anchor="middle" class="title">Decoder</text>
  <use href="#icon-snow" x="2012" y="414" width="22" height="22"/>
  <path class="arrow" d="M1973 452 V491"/>
  <g transform="translate(1838 504)">
    <rect x="0" y="44" width="170" height="28" rx="7" fill="#b8dff0" stroke="#82b8d1"/>
    <rect x="10" y="28" width="170" height="28" rx="7" fill="#d5ebc7" stroke="#a9cf90"/>
    <rect x="20" y="12" width="170" height="28" rx="7" fill="#f2d6be" stroke="#d8a77e"/>
    <text x="105" y="32" text-anchor="middle" class="title">Part Voxels</text>
    <text x="105" y="62" text-anchor="middle" class="subtitle">K layers</text>
  </g>
  <rect class="card gray" x="1818" y="626" width="220" height="72"/>
  <text x="1928" y="671" text-anchor="middle" class="title">Body = residual</text>
  <path class="arrow-soft" d="M1924 586 V623"/>
  <path class="arrow" d="M1938 700 V732"/>
  <rect class="card blue" x="1835" y="738" width="205" height="78"/>
  <text x="1938" y="771" text-anchor="middle" class="title">Argmax + CC</text>
  <text x="1938" y="798" text-anchor="middle" class="subtitle">single owner</text>

  <!-- Training only strip -->
  <rect class="train-box" x="1130" y="676" width="675" height="125"/>
  <text x="1160" y="706" class="small">training only</text>
  <rect class="card new-card" x="1180" y="724" width="285" height="58"/>
  <rect class="badge" x="1196" y="741" width="54" height="24"/>
  <text class="badge-text" x="1223" y="758" text-anchor="middle">NEW</text>
  <text x="1308" y="750" text-anchor="middle" class="med">Boundary-band</text>
  <text x="1308" y="773" text-anchor="middle" class="tiny">Supervision</text>
  <g transform="translate(1400 738)">
    <rect x="0" y="0" width="26" height="26" fill="#e9f2fb" stroke="#9bb8d2"/>
    <rect x="26" y="0" width="26" height="26" fill="#f6cfbe" stroke="#d99d85"/>
    <rect x="0" y="26" width="26" height="26" fill="#e9f2fb" stroke="#9bb8d2"/>
    <rect x="26" y="26" width="26" height="26" fill="#f6cfbe" stroke="#d99d85"/>
    <path d="M25 2 V50" stroke="#dc2f2f" stroke-width="4" opacity="0.75"/>
  </g>
  <rect class="card new-card" x="1500" y="724" width="270" height="58"/>
  <rect class="badge" x="1516" y="741" width="54" height="24"/>
  <text class="badge-text" x="1543" y="758" text-anchor="middle">NEW</text>
  <text x="1636" y="750" text-anchor="middle" class="med">Voxel</text>
  <text x="1636" y="773" text-anchor="middle" class="tiny">Corruption</text>
  <g transform="translate(1696 735)">
    <polygon points="0,17 22,5 44,17 22,29" fill="#d5ebc7" stroke="#a9cf90"/>
    <polygon points="0,17 22,29 22,54 0,42" fill="#c4dfb0" stroke="#a9cf90"/>
    <polygon points="44,17 22,29 22,54 44,42" fill="#b5d69d" stroke="#a9cf90"/>
    <g transform="translate(62 0)">
      <polygon points="0,17 22,5 44,17 22,29" fill="#ffe4c7" stroke="#d99d85"/>
      <polygon points="0,17 22,29 22,54 0,42" fill="#f2c2aa" stroke="#d99d85"/>
      <polygon points="44,17 22,29 22,54 44,42" fill="#e8ad94" stroke="#d99d85"/>
      <circle cx="5" cy="8" r="3" fill="#dc2f2f"/>
      <circle cx="38" cy="4" r="3" fill="#dc2f2f"/>
      <circle cx="50" cy="34" r="3" fill="#dc2f2f"/>
    </g>
  </g>
  <path class="arrow-red" d="M1320 724 C1375 655 1470 564 1510 552"/>
  <path class="arrow-red" d="M1620 724 C1600 660 1570 590 1545 552"/>

  <!-- Cross-panel prompt connection lands at 2D mask card -->
  <path class="arrow" d="M884 601 H918"/>

  <!-- Legend -->
  <rect x="1588" y="833" width="438" height="38" rx="12" fill="#fbfcfe" stroke="#d7dee9" stroke-width="1.5"/>
  <use href="#icon-snow" x="1607" y="841" width="18" height="18"/>
  <text x="1630" y="858" class="legend">frozen</text>
  <use href="#icon-fire" x="1716" y="839" width="20" height="20"/>
  <text x="1740" y="858" class="legend">trainable</text>
  <rect class="badge" x="1846" y="840" width="54" height="23"/>
  <text class="badge-text" x="1873" y="857" text-anchor="middle">NEW</text>
  <text x="1910" y="858" class="legend">added vs baseline</text>
  <text x="1588" y="889" class="legend">dashed = training only</text>
</svg>
